<?xml version="1.0" standalone="no"?>
<!DOCTYPE svg PUBLIC "-//W3C//DTD SVG 20010904//EN"
 "http://www.w3.org/TR/2001/REC-SVG-20010904/DTD/svg10.dtd">
<svg version="1.0" xmlns="http://www.w3.org/2000/svg"
 width="260.000000pt" height="260.000000pt" viewBox="0 0 260.000000 260.000000"
 preserveAspectRatio="xMidYMid meet">
<metadata>
Created by potrace 1.11, written by Peter Selinger 2001-2013
</metadata>
<g transform="translate(0.000000,260.000000) scale(0.100000,-0.100000)"
fill="#000000" stroke="none">
<path d="M0 1300 l0 -1300 1300 0 1300 0 0 1300 0 1300 -1300 0 -1300 0 0
-1300z m810 553 c0 -163 3 -293 7 -289 5 4 56 137 114 294 l107 287 121 3 c67
1 121 -1 121 -5 0 -4 -50 -127 -110 -272 -61 -145 -110 -274 -110 -285 0 -11
57 -270 127 -575 101 -437 129 -547 134 -520 4 19 62 400 130 846 l124 813
155 0 155 0 128 -842 c71 -464 128 -846 128 -850 -1 -5 -55 -8 -121 -8 l-119
0 -6 33 c-3 17 -12 86 -20 152 -24 185 -6 165 -145 165 -116 0 -120 -1 -124
-23 -3 -12 -12 -76 -21 -142 -8 -66 -18 -135 -21 -152 l-5 -33 -244 0 -245 0
-5 22 c-3 13 -43 184 -90 381 -47 197 -85 361 -85 364 0 18 -21 -19 -49 -86
l-31 -73 0 -304 0 -304 -125 0 -125 0 0 850 0 850 125 0 125 0 0 -297z"/>
<path d="M1716 1603 c-3 -21 -19 -141 -36 -268 -17 -126 -33 -240 -35 -252 -5
-23 -4 -23 85 -23 l90 0 -6 28 c-4 24 -74 540 -74 549 0 2 -4 3 -9 3 -5 0 -12
-17 -15 -37z"/>
</g>
</svg>
